<svg xmlns="http://www.w3.org/2000/svg" width="512" height="512" viewBox="0 0 512 512" version="1.1">
	<path d="M 218.001 24.084 C 216.626 24.654, 214.501 26.059, 213.280 27.207 C 208.711 31.499, 208.672 33.457, 212.462 68.075 C 214.408 85.849, 216 100.440, 216 100.501 C 216 100.562, 212.063 99.813, 207.250 98.836 C 179.951 93.298, 144.762 93.706, 118.843 99.862 C 100.272 104.273, 82.228 112.620, 80.086 117.792 C 78.740 121.042, 79.880 125.274, 82.496 126.738 C 83.789 127.461, 82.745 128.541, 77.170 132.248 C 29.339 164.054, 0 220.036, 0 279.500 C -0 351.166, 41.340 415.253, 105 442.276 C 134.865 454.954, 170.251 458.110, 201.293 450.865 C 209.454 448.961, 210.245 448.930, 212.293 450.436 C 239.867 470.717, 270.824 483.569, 301.759 487.578 C 306.879 488.242, 307.111 488.162, 310.493 484.577 L 313.967 480.893 322.696 481.601 C 330.896 482.267, 331.618 482.513, 334.580 485.653 C 337.673 488.933, 337.856 488.986, 344.117 488.401 C 355.568 487.330, 374.298 483.166, 386.348 479.010 C 433.795 462.650, 472.311 428.247, 493.859 382.977 C 505.910 357.662, 510.533 337.487, 512.074 303.500 C 512.647 290.850, 512.958 276.450, 512.764 271.500 C 512.443 263.300, 512.384 263.656, 512.103 275.500 L 511.794 288.500 510.456 278.684 C 507.774 258.999, 500.205 234.786, 491.673 218.603 C 486.488 208.767, 479.676 206.597, 469.758 211.623 C 465.723 213.667, 464.484 213.943, 464.138 212.873 C 462.407 207.519, 448.827 182.877, 443.542 175.500 C 431.652 158.902, 415.499 143.092, 399.222 132.119 L 392.944 127.887 394.972 125.309 C 399.292 119.816, 396.742 115.422, 386.119 110.060 C 373.480 103.680, 358.855 99.307, 342.267 96.946 C 332.306 95.529, 329.512 96.109, 327.493 100.014 L 325.949 103 316.596 103 C 307.243 103, 307.243 103, 306.055 100.134 C 304.007 95.189, 301.619 94.605, 288.836 95.924 C 282.601 96.568, 273.788 97.901, 269.250 98.886 L 261 100.678 261 97.924 C 261 96.410, 262.350 82.870, 264 67.835 C 267.428 36.596, 267.538 33.940, 265.551 30.099 C 262.429 24.060, 260.374 23.522, 239.500 23.274 C 228.127 23.139, 219.497 23.465, 218.001 24.084 M 0.405 279.500 C 0.406 288.300, 0.559 291.766, 0.745 287.203 C 0.930 282.639, 0.929 275.439, 0.742 271.203 C 0.555 266.966, 0.404 270.700, 0.405 279.500" stroke="none" fill="black" fill-rule="evenodd"/>
</svg>